HIERARCHY
ROOT Hips
{
	OFFSET 0.000000 0.000000 0.000000
	CHANNELS 6 Xposition Yposition Zposition Xrotation Yrotation Zrotation
	JOINT LeftUpLeg_virtual
	{
		OFFSET 0.000000 0.000000 0.000000
		CHANNELS 3 Xrotation Yrotation Zrotation
		JOINT LeftUpLeg
		{
			OFFSET 15.427100 -6.655098 0.678600
			CHANNELS 3 Xrotation Yrotation Zrotation
			JOINT LeftLeg
			{
				OFFSET 4.081073 -39.591068 13.024000
				CHANNELS 3 Xrotation Yrotation Zrotation
				JOINT LeftFoot
				{
					OFFSET -4.081074 -37.707932 -15.979700
					CHANNELS 3 Xrotation Yrotation Zrotation
					JOINT LeftToeBase
					{
						OFFSET 5.346399 -15.068900 20.645000
						CHANNELS 3 Xrotation Yrotation Zrotation
						JOINT LeftToe_End
						{
							OFFSET 2.754700 0.931300 11.300900
							CHANNELS 3 Xrotation Yrotation Zrotation
							End Site
							{
								OFFSET 0 0 0
							}
						}
					}
				}
			}
		}
	}
	JOINT RightUpLeg_virtual
	{
		OFFSET 0.000000 0.000000 0.000000
		CHANNELS 3 Xrotation Yrotation Zrotation
		JOINT RightUpLeg
		{
			OFFSET -15.569500 -6.655098 0.678600
			CHANNELS 3 Xrotation Yrotation Zrotation
			JOINT RightLeg
			{
				OFFSET -4.081825 -39.591045 13.023800
				CHANNELS 3 Xrotation Yrotation Zrotation
				JOINT RightFoot
				{
					OFFSET 4.081824 -37.707954 -15.979600
					CHANNELS 3 Xrotation Yrotation Zrotation
					JOINT RightToeBase
					{
						OFFSET -5.346400 -15.068900 20.645000
						CHANNELS 3 Xrotation Yrotation Zrotation
						JOINT RightToe_End
						{
							OFFSET -2.754700 0.931300 11.300900
							CHANNELS 3 Xrotation Yrotation Zrotation
							End Site
							{
								OFFSET 0 0 0
							}
						}
					}
				}
			}
		}
	}
	JOINT Spine_virtual
	{
		OFFSET 0.000000 0.000000 0.000000
		CHANNELS 3 Xrotation Yrotation Zrotation
		JOINT Spine
		{
			OFFSET -0.279200 12.230698 -2.892100
			CHANNELS 3 Xrotation Yrotation Zrotation
			JOINT Spine1
			{
				OFFSET -0.232667 10.192268 -1.242267
				CHANNELS 3 Xrotation Yrotation Zrotation
				JOINT Spine1_split
				{
					OFFSET -0.232667 10.192268 -1.242267
					CHANNELS 3 Xrotation Yrotation Zrotation
					JOINT Spine2
					{
						OFFSET -0.232667 10.192268 -1.242267
						CHANNELS 3 Xrotation Yrotation Zrotation
						JOINT Neck_virtual
						{
							OFFSET 0.000000 0.000000 0.000000
							CHANNELS 3 Xrotation Yrotation Zrotation
							JOINT Neck
							{
								OFFSET -0.418800 17.814194 8.416900
								CHANNELS 3 Xrotation Yrotation Zrotation
								JOINT Head
								{
									OFFSET 0.000000 7.031097 3.806800
									CHANNELS 3 Xrotation Yrotation Zrotation
									JOINT HeadTop_End
									{
										OFFSET 0.000000 24.646606 12.978600
										CHANNELS 3 Xrotation Yrotation Zrotation
										End Site
										{
											OFFSET 0 0 0
										}
									}
								}
							}
						}
						JOINT LeftShoulder_virtual
						{
							OFFSET 0.000000 0.000000 0.000000
							CHANNELS 3 Xrotation Yrotation Zrotation
							JOINT LeftShoulder
							{
								OFFSET 8.476499 7.247704 -3.868750
								CHANNELS 3 Xrotation Yrotation Zrotation
								JOINT LeftShoulder_split
								{
									OFFSET 8.476499 7.247704 -3.868750
									CHANNELS 3 Xrotation Yrotation Zrotation
									JOINT LeftArm
									{
										OFFSET 9.308998 -2.777710 0.208600
										CHANNELS 3 Xrotation Yrotation Zrotation
										JOINT LeftForeArm
										{
											OFFSET 29.972298 0.000000 0.000000
											CHANNELS 3 Xrotation Yrotation Zrotation
											JOINT LeftHand
											{
												OFFSET 26.026505 0.000000 0.000000
												CHANNELS 3 Xrotation Yrotation Zrotation
												End Site
												{
													OFFSET 0 0 0
												}
											}
										}
									}
								}
							}
						}
						JOINT RightShoulder_virtual
						{
							OFFSET 0.000000 0.000000 0.000000
							CHANNELS 3 Xrotation Yrotation Zrotation
							JOINT RightShoulder
							{
								OFFSET -7.570500 7.247704 -3.868750
								CHANNELS 3 Xrotation Yrotation Zrotation
								JOINT RightShoulder_split
								{
									OFFSET -7.570500 7.247704 -3.868750
									CHANNELS 3 Xrotation Yrotation Zrotation
									JOINT RightArm
									{
										OFFSET -9.308998 -2.777710 0.208500
										CHANNELS 3 Xrotation Yrotation Zrotation
										JOINT RightForeArm
										{
											OFFSET -29.972300 0.000000 0.000000
											CHANNELS 3 Xrotation Yrotation Zrotation
											JOINT RightHand
											{
												OFFSET -26.026505 0.000000 0.000000
												CHANNELS 3 Xrotation Yrotation Zrotation
												End Site
												{
													OFFSET 0 0 0
												}
											}
										}
									}
								}
							}
						}
					}
				}
			}
		}
	}
}
MOTION
Frames: 4
Frame Time: 0.03333333
2.579316 88.315247 2.401012 0.000000 0.000000 0.000000 -31.488982 -42.643081 -20.318476 -2.958878 11.672488 5.399487 34.522624 2.328299 -3.957041 -11.684475 5.721760 2.534886 -5.983417 0.118239 -0.459122 0.000000 0.000000 0.000000 -28.756408 -39.020420 -18.255738 14.656449 -10.795382 -7.365928 21.267076 7.087099 -4.059355 -16.155267 -14.953623 6.611047 -2.870920 0.748494 0.743063 0.000000 0.000000 0.000000 -30.827844 -41.190477 -20.262711 11.089113 -4.405507 0.382569 3.328754 -1.312982 0.035882 0.528204 1.157413 0.052770 0.000000 0.000000 0.000000 3.561280 -2.194301 0.020862 1.792738 1.812707 -3.502067 -6.517189 -1.126037 4.006703 0.000000 0.000000 0.000000 3.620268 -2.529728 0.189707 0.958477 -15.387948 -11.092021 0.610008 -1.033679 -0.595688 -20.682472 -0.035497 -38.776435 2.404617 -68.011008 2.178857 0.000000 0.000000 0.000000 2.719243 -2.459631 0.161289 -0.090682 11.220718 16.159849 2.175924 3.765990 -2.005446 -10.151485 -7.087114 61.880134 -0.292100 42.619090 1.200093 0.000000 0.000000 0.000000 
3.072363 88.334259 3.269772 0.000000 0.000000 0.000000 -32.483762 -44.816163 -22.050870 -0.920638 13.477756 5.767253 32.646730 2.400856 -5.754623 -13.072411 7.509672 5.661656 -6.047955 -0.004447 -0.084257 0.000000 0.000000 0.000000 -29.607217 -40.608801 -19.637728 13.667599 -10.718618 -8.013046 21.669004 7.339550 -5.138205 -14.601920 -14.849362 7.935762 -2.638864 0.717109 0.473109 0.000000 0.000000 0.000000 -31.960788 -42.933770 -21.829262 11.113394 -4.432969 0.259019 3.365993 -1.291971 0.020828 0.468755 1.112611 0.048126 0.000000 0.000000 0.000000 3.525075 -2.169768 0.027572 1.885488 1.747598 -3.484534 -6.450373 -0.976647 3.827406 0.000000 0.000000 0.000000 3.636359 -2.485988 0.188342 1.005236 -15.494274 -11.040153 0.461039 -0.953150 -0.620939 -20.515450 -0.106811 -38.700385 2.408319 -68.117702 2.167131 0.000000 0.000000 0.000000 2.805404 -2.405229 0.152975 -0.059031 11.229700 16.169599 2.190337 3.774398 -1.961925 -10.166777 -7.162156 62.001391 -0.224725 42.500606 1.158948 0.000000 0.000000 0.000000 
3.581702 88.316620 4.203720 0.000000 0.000000 0.000000 -33.740421 -46.887179 -23.929035 0.958110 14.697790 5.863381 31.059503 2.415935 -7.231975 -14.431283 9.296077 8.080182 -5.963762 -0.079499 0.089211 0.000000 0.000000 0.000000 -30.544381 -42.216867 -21.088088 12.799445 -10.413122 -8.422590 22.258948 6.976791 -6.239411 -13.438685 -15.170861 8.434879 -2.152706 0.697523 0.384857 0.000000 0.000000 0.000000 -33.239628 -44.603256 -23.516411 11.083908 -4.411188 0.098639 3.404565 -1.268447 0.024312 0.473091 1.036966 0.089042 0.000000 0.000000 0.000000 3.528268 -2.148632 0.045303 2.017643 1.687586 -3.474358 -6.412066 -0.913247 3.671453 0.000000 0.000000 0.000000 3.688550 -2.449886 0.199861 1.072494 -15.541751 -10.887171 0.276080 -0.931866 -0.729561 -20.400441 -0.155986 -38.694647 2.420126 -68.161108 2.176804 0.000000 0.000000 0.000000 2.925904 -2.356419 0.166042 -0.021890 11.266610 16.185416 2.227451 3.789243 -1.904676 -10.093413 -7.238290 62.010488 -0.160776 42.546153 1.115949 0.000000 0.000000 0.000000 
4.079984 88.326935 5.190208 0.000000 0.000000 0.000000 -35.138376 -48.621258 -25.830396 2.598747 15.336959 5.643102 29.793599 2.403726 -8.241676 -15.498191 10.991397 9.719441 -5.620047 -0.078259 0.016046 0.000000 0.000000 0.000000 -31.683520 -43.924199 -22.718324 12.052250 -9.905421 -8.407754 23.149951 5.983884 -7.289087 -12.679353 -15.796262 8.100378 -1.813379 0.692441 0.474228 0.000000 0.000000 0.000000 -34.673039 -46.220351 -25.331746 10.991579 -4.352569 -0.047598 3.446003 -1.265341 0.046358 0.571274 0.886766 0.218148 0.000000 0.000000 0.000000 3.584106 -2.139288 0.077833 2.124257 1.624019 -3.448295 -6.472672 -0.940275 3.553382 0.000000 0.000000 0.000000 3.768243 -2.434745 0.221724 1.142097 -15.558647 -10.679037 0.132632 -0.929903 -0.884311 -20.409647 -0.137284 -38.754555 2.447708 -68.173409 2.219500 0.000000 0.000000 0.000000 3.045840 -2.332422 0.195093 0.011765 11.314941 16.225603 2.275022 3.834271 -1.852253 -9.959098 -7.327700 61.890345 -0.126959 42.720596 1.087850 0.000000 0.000000 0.000000 
